<svg version="1.1" id="Layer_1" xmlns="http://www.w3.org/2000/svg" xmlns:xlink="http://www.w3.org/1999/xlink" x="0px" y="0px"
	 width="100%" viewBox="0 0 960 1024" enable-background="new 0 0 960 1024" xml:space="preserve">
<path fill="#000000" opacity="1.000000" stroke="none" 
	d="
M406.977936,1000.023193 
	C408.395599,998.889832 409.578430,997.199341 411.539185,997.141663 
	C416.483826,996.996155 416.297699,993.491150 415.573547,990.435120 
	C412.726532,978.420349 409.565308,966.480042 406.514771,954.513611 
	C405.775055,951.611938 404.262970,950.006226 400.893951,950.177490 
	C396.454803,950.403198 393.504852,948.106812 391.652863,943.990173 
	C387.913788,935.678833 386.790894,926.504883 382.910828,918.228821 
	C381.934174,916.145752 380.635956,915.169678 377.600006,913.900269 
	C377.600006,920.395874 377.767822,926.262817 377.552429,932.115723 
	C377.340424,937.876160 373.712006,942.559753 369.424286,943.206055 
	C361.023285,944.472229 357.131866,942.677917 354.818024,935.686890 
	C351.300568,925.059204 348.258606,914.281677 346.245453,903.245239 
	C345.878845,901.235413 345.880829,901.216125 341.979462,898.601562 
	C340.859955,902.677673 339.739899,906.846680 339.624908,910.552368 
	C339.407806,917.548584 338.557892,924.480408 337.767792,931.355957 
	C336.530396,942.123962 335.768555,953.088989 332.154938,963.422241 
	C330.646851,967.734802 327.699829,971.171814 322.304962,971.217896 
	C316.191498,971.270203 312.299713,968.871399 309.987701,963.855164 
	C308.138489,959.843018 307.886047,955.589233 307.636444,951.543823 
	C305.914551,950.415833 304.809692,951.626831 303.584259,951.882507 
	C293.652679,953.954590 285.697540,948.826538 287.766022,938.037537 
	C288.818878,932.545776 287.730011,926.725220 291.063385,921.024902 
	C285.410065,921.793457 283.024750,925.898438 279.990936,928.845154 
	C276.619598,932.119873 272.908386,933.538147 268.275818,933.151978 
	C260.835052,932.531799 255.984375,924.275269 258.891876,917.396851 
	C263.817291,905.744629 272.019745,896.316345 279.652405,886.524292 
	C282.294983,883.134094 284.265625,879.217041 287.646851,876.356934 
	C289.320831,874.940918 288.480225,873.363098 286.946838,872.185608 
	C284.317932,870.167114 281.763367,868.643127 278.465729,871.223633 
	C273.370117,875.211121 268.117798,879.000122 262.892761,882.819824 
	C259.927887,884.987366 256.818756,887.086914 253.195389,887.806641 
	C247.750290,888.888367 243.006088,886.876526 240.206116,882.300842 
	C237.587540,878.021606 237.719406,872.941406 240.339172,868.554810 
	C243.659119,862.995850 247.412399,857.688965 251.122650,852.373718 
	C252.379364,850.573303 253.493896,849.023132 251.347641,847.229980 
	C249.396500,845.599915 247.716629,846.429382 245.991455,847.790771 
	C241.947586,850.982056 237.945602,854.223572 233.224915,856.453613 
	C224.201874,860.715942 217.398392,857.244873 215.852676,847.500305 
	C215.777954,847.029175 215.508316,846.588989 215.227692,845.875854 
	C211.996338,846.292053 209.104034,847.871826 205.782745,848.206055 
	C196.476425,849.142273 190.501770,838.030640 195.287018,829.916260 
	C200.024857,821.882385 206.115463,814.836426 211.294052,807.133667 
	C211.936981,806.177368 212.909058,805.390320 211.987427,803.100342 
	C208.369843,805.260620 204.707809,807.203857 201.315750,809.539246 
	C197.690079,812.035339 193.663376,813.698975 189.559387,814.809509 
	C184.692322,816.126648 179.668472,815.173767 176.183319,811.312378 
	C172.348373,807.063538 171.866348,801.694946 173.529877,796.295166 
	C176.022247,788.204895 181.506287,781.851013 186.211670,775.055420 
	C187.815079,772.739868 189.518951,770.491943 191.068222,768.141541 
	C191.942184,766.815674 192.238327,765.374878 190.325409,763.764648 
	C185.364059,767.330505 180.337601,771.007324 175.240021,774.582703 
	C172.245071,776.683228 169.219116,778.447754 165.212570,778.365662 
	C160.561432,778.270264 156.694107,777.276428 154.170837,773.044617 
	C151.128616,767.942444 152.546524,763.429077 155.560623,758.825745 
	C159.897827,752.201843 165.688324,746.945618 171.144638,741.355164 
	C173.199066,739.250183 175.485458,737.270752 176.792328,733.742615 
	C172.783020,734.221985 170.686096,736.887329 168.136658,738.609863 
	C160.170181,743.992188 152.671082,750.077393 144.045166,754.461731 
	C138.821838,757.116516 132.131958,756.695862 128.621841,753.442688 
	C124.203468,749.347839 123.069046,744.047302 125.830139,737.971069 
	C130.535690,727.615906 137.868790,718.922607 144.257645,709.636230 
	C144.995850,708.563171 146.230530,707.805725 146.288681,705.910339 
	C144.147018,705.912537 143.138214,707.584900 142.106628,708.797424 
	C138.818512,712.662537 134.301025,714.982178 130.525452,718.236084 
	C127.782089,720.600403 119.004059,719.373413 116.474258,716.904358 
	C113.374908,713.879456 112.661201,706.176697 115.316536,701.997498 
	C119.696892,695.103210 125.305809,689.155457 130.676727,683.067261 
	C133.975937,679.327454 137.172974,675.541870 140.647171,671.138184 
	C133.333237,674.116455 126.154274,677.679626 120.391609,670.200012 
	C113.537842,661.304138 119.445137,653.428711 123.883690,645.136230 
	C115.293602,642.318054 106.929070,639.807556 98.939598,636.287415 
	C84.797562,630.056580 70.412148,624.336670 60.080639,611.916016 
	C55.920258,606.914307 53.184052,601.330811 51.831905,595.166992 
	C47.685101,576.263611 49.399555,557.009521 50.334442,538.046448 
	C51.047775,523.577271 52.839764,508.806732 57.046276,494.733673 
	C59.958473,484.990906 61.901630,474.616943 70.238129,467.312103 
	C78.268158,460.275757 87.460991,459.451843 97.281563,461.717743 
	C100.929222,462.559418 104.960190,462.581116 107.540024,466.024261 
	C109.554001,464.216339 108.778770,462.274170 108.788109,460.597107 
	C108.862350,447.265320 108.736115,433.931976 108.875206,420.601227 
	C108.931732,415.183807 107.778229,409.651794 110.326942,404.907623 
	C109.074303,402.969055 107.612473,403.387878 106.343552,403.257355 
	C97.336433,402.330780 92.679436,394.551880 95.514633,385.881622 
	C100.075279,371.934845 106.312981,358.722046 113.380463,345.967041 
	C126.183167,322.861389 136.787125,298.683777 148.786209,275.200348 
	C157.329056,258.481110 168.043228,243.114441 180.185654,228.639771 
	C187.174225,220.308914 194.744553,212.659531 202.355270,204.993408 
	C204.904922,202.425186 204.698944,200.285126 202.776505,197.569885 
	C196.032410,188.044495 191.507950,177.250061 185.668579,167.198456 
	C182.843018,162.334686 185.542023,154.673538 190.183014,152.365845 
	C195.983398,149.481674 203.419174,151.878479 206.993103,157.564621 
	C211.924240,165.410019 217.013779,173.155853 222.034790,180.944748 
	C222.667084,181.925613 223.295425,182.909012 223.795731,183.688828 
	C228.491394,181.533661 228.490463,179.156891 226.600845,175.722275 
	C219.313126,162.475906 212.456467,149.003586 206.633652,135.033813 
	C204.156357,129.090393 206.533524,122.023582 211.926025,119.041588 
	C216.391800,116.572060 223.169571,118.477989 226.901215,123.153496 
	C228.109299,124.667122 228.910309,126.636185 230.751648,127.317444 
	C231.172455,127.252586 231.394699,127.287628 231.485779,127.194473 
	C242.423569,116.005653 246.331604,118.977234 255.636459,127.247459 
	C261.087738,132.092621 265.776276,137.797989 270.783478,143.139313 
	C272.003540,144.440765 272.941467,146.487793 275.202667,145.123795 
	C277.341217,143.833801 277.036926,141.700012 276.398926,139.758957 
	C273.927673,132.240250 270.921326,124.866440 268.950653,117.223007 
	C267.024475,109.751976 264.092957,102.429924 264.725891,94.384750 
	C265.094879,89.694763 266.554260,86.290985 270.846924,83.824631 
	C275.877777,80.934166 280.063751,82.154007 284.120850,85.341736 
	C287.847595,88.269913 290.222565,92.292313 292.492432,96.369431 
	C296.249969,103.118721 300.038086,109.851006 304.210876,116.471642 
	C304.645813,112.829269 304.905548,109.452827 303.803009,105.795616 
	C302.160767,100.348259 301.779907,94.868576 306.388397,89.987778 
	C310.012238,86.149811 314.330200,86.034386 318.281158,87.498268 
	C322.278870,88.979469 325.724579,92.151985 325.709625,97.195244 
	C325.696381,101.667473 327.911102,105.427643 329.243652,109.471672 
	C330.023438,111.838165 331.495544,111.310013 333.190460,110.455711 
	C338.381561,107.839211 343.600250,105.275642 348.846588,102.771889 
	C350.316559,102.070374 351.559204,101.163246 351.513916,99.500938 
	C351.374847,94.395813 351.602264,89.366699 350.720947,84.173233 
	C349.488403,76.909828 347.483826,69.597588 347.938416,62.127781 
	C348.374054,54.969467 357.445312,50.093555 364.540710,52.967464 
	C365.589417,53.392227 366.447968,54.378315 367.840424,53.762421 
	C369.239197,52.493721 368.675018,50.718819 368.737122,49.127537 
	C368.981537,42.861084 372.250854,39.064541 378.173370,38.301811 
	C384.884064,37.437576 389.427307,40.614021 391.403595,46.867756 
	C393.898376,54.762066 394.546570,63.050297 396.914276,70.947556 
	C397.960602,74.437561 399.130920,77.914009 400.568604,81.257446 
	C402.670288,86.145126 407.327820,84.207001 410.153198,83.330658 
	C414.612457,81.947548 418.941803,81.986122 423.389343,81.834953 
	C429.263214,81.635292 430.456787,79.392845 428.863373,73.781685 
	C427.156128,67.769775 425.321259,61.571434 425.138153,55.407047 
	C424.920349,48.073776 422.764191,41.040257 422.810272,33.753086 
	C422.852814,27.019934 426.866821,21.720150 432.378876,20.934389 
	C438.979675,19.993425 443.084473,23.050518 445.485382,30.148588 
	C447.794342,36.974781 447.374817,44.147236 448.551971,51.117752 
	C450.032562,59.885143 450.722076,68.773888 454.057587,77.159492 
	C455.108307,79.801033 457.044373,79.971138 459.291992,79.864014 
	C461.606140,79.753731 462.401794,78.214890 462.558289,76.190910 
	C462.660950,74.863434 462.672180,73.527565 462.689148,72.195015 
	C462.822083,61.762379 469.607513,56.836071 479.676910,60.089336 
	C481.724701,60.750954 482.958618,60.376766 484.624725,59.196476 
	C493.713104,52.758110 502.764557,55.407295 507.323303,65.717911 
	C508.664917,68.752304 509.913879,71.828545 511.160828,74.903641 
	C512.322754,77.769035 513.425476,80.658447 515.119385,84.978523 
	C516.383240,80.753250 517.366821,78.043564 517.988098,75.253220 
	C518.936890,70.991882 521.467224,67.705025 525.344177,66.493752 
	C529.695435,65.134308 534.347290,65.538399 537.683716,69.530624 
	C540.166687,72.501678 541.722107,75.857346 542.269165,79.798889 
	C542.945618,84.672058 544.086792,89.480721 545.228821,95.354324 
	C548.456055,91.498543 548.218445,87.810585 548.806458,84.626053 
	C549.783203,79.336006 551.437439,74.409409 553.797424,69.634476 
	C555.999878,65.178452 559.527649,62.975239 564.471863,62.778934 
	C569.881165,62.564163 573.800598,64.985649 576.379578,69.534203 
	C579.524353,75.080605 580.307312,81.449760 582.034302,87.465050 
	C583.760010,93.475838 584.625549,99.733566 586.026855,106.668182 
	C588.825256,100.281067 589.156677,94.101501 590.674133,88.236893 
	C593.713806,76.489456 595.736084,64.510307 598.997925,52.787033 
	C601.030029,45.483479 602.433960,37.962288 604.850342,30.762030 
	C606.741089,25.127981 608.807129,19.446651 615.160400,16.853392 
	C620.252869,14.774756 626.458069,16.388788 628.946472,21.311834 
	C630.885498,25.147806 632.644836,29.198069 632.276245,33.688492 
	C631.389343,44.492741 635.828613,54.869881 634.066772,65.550560 
	C636.459656,66.197159 637.063049,64.676872 637.983704,63.890526 
	C641.462280,60.919231 645.428406,59.824352 649.578735,61.751133 
	C654.072815,63.837460 656.920410,67.427208 656.917969,72.719200 
	C656.908752,92.384010 657.044067,112.050827 656.772339,131.712021 
	C656.714111,135.923523 655.661865,140.295944 654.173462,144.258377 
	C652.958069,147.494217 654.187988,148.956512 656.448242,150.399521 
	C675.911011,162.824921 695.449951,175.132675 714.810974,187.714371 
	C719.223450,190.581833 723.696899,193.530594 727.349792,197.452499 
	C735.756104,206.477905 746.114624,213.402603 754.322327,222.659744 
	C764.370483,233.992661 772.531250,246.695175 781.209412,259.030365 
	C785.203308,264.707458 789.535156,270.145935 793.584656,275.785248 
	C796.159180,279.370605 796.637695,283.567871 797.469360,287.870239 
	C799.499451,298.373535 802.461914,308.569275 808.926758,317.648529 
	C815.539124,326.934753 822.694031,335.983856 827.471863,346.458069 
	C830.893127,353.958557 827.919189,362.966858 821.428040,365.883789 
	C815.103149,368.725983 806.687744,364.671204 806.096924,357.801361 
	C805.705261,353.245728 803.454651,349.990601 801.095703,346.729340 
	C790.099854,331.527344 778.136658,316.359833 775.739624,297.361267 
	C774.068420,284.115692 764.808228,276.565796 758.589355,266.803467 
	C750.601379,254.264069 742.479248,241.589890 731.087463,231.640640 
	C725.711487,226.945465 720.071716,222.552292 715.093628,217.298386 
	C718.972534,223.666626 722.960632,229.903976 726.720398,236.288925 
	C737.196106,254.079102 746.042175,272.651306 754.318909,291.515930 
	C763.381348,312.171295 771.798523,333.096832 779.353699,354.347321 
	C782.285645,362.593964 784.536499,371.101593 786.710327,379.589569 
	C787.581177,382.989929 788.979492,383.707397 791.927673,382.298889 
	C805.675354,375.730743 820.532410,375.751709 834.916199,377.288330 
	C856.460327,379.589874 869.630676,390.890686 875.306213,415.429535 
	C877.750000,425.995483 877.582336,436.764771 878.928528,447.372925 
	C880.890015,462.829071 880.396240,478.252045 880.120117,493.659393 
	C879.792053,511.966461 875.423218,529.499451 864.120239,544.333008 
	C857.989868,552.378174 850.587341,559.507996 840.762390,563.306580 
	C837.750061,564.471191 835.533691,565.913879 834.334534,569.451355 
	C832.191711,575.772888 825.927429,578.495972 819.373230,576.688354 
	C814.435791,575.326599 809.522156,573.865662 804.644897,572.302368 
	C801.137878,571.178284 799.379944,571.884644 799.057495,575.955261 
	C798.491272,583.102112 799.859192,588.894287 805.676147,594.094116 
	C812.591797,600.276062 819.716797,606.339478 825.697205,613.588501 
	C829.441650,618.127197 829.073669,623.179504 827.546997,627.694763 
	C825.995911,632.282227 821.802795,634.358765 816.381348,634.386047 
	C807.789368,634.429260 800.475220,630.180908 792.466858,628.373474 
	C791.999207,628.267944 791.508179,628.265686 791.070984,628.219910 
	C787.817505,633.162476 787.973816,634.667908 792.688965,637.367554 
	C798.301697,640.581299 803.579529,644.334229 809.575806,646.952332 
	C815.919861,649.722351 818.395996,657.578979 815.296814,663.351807 
	C812.240845,669.044189 805.084656,671.107666 798.865356,667.830994 
	C793.568787,665.040466 788.090332,662.787170 781.720032,660.846924 
	C779.375122,667.722839 777.419373,674.692322 774.619080,681.304077 
	C772.074463,687.312378 773.925354,691.252869 778.565002,695.063232 
	C782.672485,698.436462 786.355469,702.331543 790.174866,706.048645 
	C792.344849,708.160461 794.055847,710.404175 794.176453,713.769592 
	C794.609070,725.842957 788.019531,728.434875 776.638367,725.213745 
	C772.044617,723.913574 767.822144,721.336426 763.363892,719.502991 
	C761.812866,718.865173 760.064819,717.510071 758.438416,719.649597 
	C756.730469,721.896606 758.151184,723.362427 759.610718,724.791443 
	C765.559875,730.616272 771.568909,736.380310 777.497559,742.225708 
	C781.310242,745.984924 781.270935,754.784058 777.519775,758.523926 
	C773.658020,762.374084 765.334534,762.333191 761.319214,758.459045 
	C760.480713,757.650146 759.610596,756.870728 758.717651,756.122314 
	C755.896484,753.757935 753.921631,752.377747 751.189331,757.051331 
	C746.753052,764.639404 746.466980,764.237061 750.946411,772.025391 
	C755.204041,779.428223 760.230957,786.493713 759.299622,795.973633 
	C758.479980,804.317200 750.774109,810.062256 742.723755,807.399231 
	C741.629395,807.037170 740.539307,806.638367 739.416992,806.397217 
	C739.002625,806.308167 738.501099,806.624756 737.953003,806.780945 
	C737.600769,808.874268 738.279297,810.728455 738.943726,812.572998 
	C741.422241,819.453430 740.083862,824.046143 734.465210,827.855347 
	C730.527100,830.525208 722.734863,829.055603 718.536682,825.181335 
	C714.072083,821.061096 709.362854,817.205994 703.673157,812.297119 
	C705.520508,819.076233 708.133484,824.024109 709.742432,829.329651 
	C711.586243,835.409546 709.873596,840.297424 706.011047,843.873169 
	C701.690308,847.872864 695.796326,846.841858 690.401428,845.186523 
	C689.645630,844.954590 688.982300,844.421326 687.938049,843.839050 
	C687.433228,847.158264 688.922058,849.623901 689.976135,852.080505 
	C693.924561,861.282776 691.090210,868.021301 681.889282,871.652466 
	C677.992371,873.190430 675.406677,869.273926 671.347595,870.033875 
	C668.908569,879.889526 663.763489,886.699768 650.619690,882.706787 
	C654.036316,900.515198 659.501343,916.744934 664.342957,933.608704 
	C668.060181,931.729980 670.406250,929.914124 670.758240,926.004333 
	C671.132019,921.852112 675.874512,917.588440 680.201782,917.049683 
	C691.049683,915.699097 701.912354,914.608582 712.864868,915.617371 
	C725.029907,916.737793 737.288208,917.293091 749.311646,919.273987 
	C753.850281,920.021667 758.457214,920.164124 763.123474,921.390076 
	C765.289490,915.345642 768.203003,910.285522 775.483398,910.059082 
	C781.233643,909.880249 788.366150,914.610596 789.931580,920.949951 
	C791.441895,927.066589 794.939148,929.416870 800.739929,931.390625 
	C818.498108,937.432861 835.608093,945.119019 852.063354,954.235107 
	C871.431885,964.964905 889.670227,977.385010 907.206726,990.829407 
	C914.050293,996.076050 920.527161,1001.801941 927.929932,1006.287292 
	C932.216858,1008.884888 936.828369,1010.468872 941.890747,1010.960205 
	C947.705200,1011.524658 951.393250,1016.748901 951.892822,1024.685791 
	C939.312439,1025.000000 926.624878,1025.000000 913.290161,1024.718506 
	C904.829834,1018.546753 896.828979,1012.887756 889.238403,1006.723450 
	C866.153809,987.976318 840.525085,973.404419 813.652405,961.040283 
	C806.477600,957.739075 799.022156,954.235291 790.738037,953.359863 
	C787.751282,968.955383 782.267212,983.423706 775.550171,997.495239 
	C770.911377,1007.213074 764.761047,1015.979919 759.000000,1025.000000 
	C749.645752,1025.000000 740.291565,1025.000000 730.617065,1024.698120 
	C736.327332,1016.277100 742.670349,1008.426453 747.915100,999.693237 
	C756.803467,984.892639 763.221069,969.174072 767.480347,952.508911 
	C768.773560,947.449158 767.530945,945.873047 762.263977,944.900879 
	C754.494385,943.466858 746.831177,941.734009 738.886597,941.011719 
	C725.012024,939.750244 711.202942,937.866943 697.225891,938.081238 
	C689.755493,938.195740 689.109375,939.149231 692.202942,945.780090 
	C694.905334,951.572632 696.448181,957.589417 696.326782,964.067444 
	C696.236328,968.894348 695.177673,973.553467 694.624817,978.270203 
	C692.591797,995.616272 684.758362,1010.447021 676.000000,1025.000000 
	C667.645752,1025.000000 659.291504,1025.000000 650.626465,1024.695801 
	C654.497681,1017.232300 658.907715,1010.194702 662.810791,1002.886292 
	C669.411377,990.527100 673.660339,977.416199 673.899170,963.255981 
	C673.964233,959.399597 672.834473,955.881348 669.924622,953.207397 
	C668.209290,955.453308 666.929443,957.658203 665.158936,959.349426 
	C659.467346,964.786499 649.414490,962.435913 647.017090,955.155823 
	C642.272217,940.747559 637.926453,926.219971 633.910156,911.587830 
	C632.021301,904.706177 631.020569,897.536316 627.892883,890.568054 
	C615.683289,897.763794 610.081238,888.451233 603.329651,880.374207 
	C602.628662,886.863098 605.240723,892.118530 604.577026,897.560242 
	C603.900940,903.103760 602.628113,908.330322 597.295288,911.514221 
	C592.235962,914.534912 587.046143,914.093811 582.758789,910.785034 
	C577.517883,906.740479 572.914978,901.848389 568.923889,896.456116 
	C566.225037,892.809692 563.312561,889.321350 560.558289,885.841492 
	C559.199280,886.615295 559.325317,887.525146 559.301636,888.317566 
	C559.090332,895.387146 560.447205,902.702087 555.705750,909.022400 
	C554.854065,910.157715 555.711182,911.582642 555.925781,912.885864 
	C556.722900,917.726868 553.477661,923.541748 548.704346,926.010986 
	C544.204529,928.338684 540.376160,927.424316 536.082886,923.432861 
	C531.764832,919.418274 528.970093,914.283264 525.385864,909.738098 
	C523.346619,907.151917 522.393799,903.514709 518.999390,901.998413 
	C517.549194,903.752991 518.801636,905.058960 519.088074,906.435547 
	C520.631653,913.853333 517.075989,922.277832 511.743042,923.858093 
	C505.162231,925.808167 497.952789,922.787659 493.924591,916.913635 
	C488.381042,908.829895 482.941559,900.686951 478.037567,892.201660 
	C476.386597,889.345032 474.437866,888.578308 471.465454,890.174316 
	C469.868622,891.031677 468.133118,891.728516 466.377869,892.172119 
	C463.034790,893.017029 462.097778,895.007568 462.178833,898.367920 
	C462.403656,907.690613 462.325592,917.022583 462.249939,926.349915 
	C462.202545,932.194763 457.575287,938.513123 452.725403,939.660217 
	C446.716644,941.081360 442.114136,938.526794 438.548950,932.196228 
	C434.873474,925.669861 431.408020,919.043884 428.474976,912.158752 
	C427.105103,908.942932 425.401367,908.399719 422.291626,910.042175 
	C419.428711,911.554260 416.046204,912.358521 417.691711,916.739441 
	C426.108246,939.146729 432.088928,962.267273 437.929260,985.433838 
	C440.216766,994.507568 437.485199,1000.362854 428.539795,1004.083008 
	C426.226044,1005.045227 426.173767,1006.572388 426.171539,1008.405090 
	C426.163910,1014.614868 428.792786,1019.912048 432.000000,1025.000000 
	C423.979095,1025.000000 415.958191,1025.000000 407.354401,1024.625732 
	C404.229767,1016.126587 401.492065,1007.999634 407.026581,999.979736 
	C407.010315,999.994080 406.977936,1000.023193 406.977936,1000.023193 
M151.966370,601.812622 
	C152.377487,602.694519 153.176743,603.259949 153.870193,602.486633 
	C156.872543,599.138489 160.799561,599.689331 164.590530,599.804626 
	C172.420868,600.042786 176.936295,608.629578 172.887665,615.393433 
	C171.990463,616.892334 170.428680,618.047668 170.266449,620.061829 
	C171.888260,619.931519 172.457855,618.553284 173.472290,617.790283 
	C181.293991,611.907166 188.488586,605.128418 197.448914,600.867065 
	C202.368942,598.527283 209.523315,599.429138 212.802856,602.717346 
	C216.845932,606.771118 217.374084,611.639893 214.428146,617.799011 
	C209.429626,628.249573 202.325943,637.208252 194.597031,645.718018 
	C192.915527,647.569458 190.638321,649.264404 193.715912,651.784912 
	C201.337646,658.026855 202.883057,664.337952 198.074387,673.006531 
	C194.866760,678.788940 190.879669,684.151367 187.065216,689.577942 
	C185.747879,691.451965 184.192032,693.186890 186.098022,695.279114 
	C188.167252,697.550415 189.653366,695.181091 191.165787,694.150574 
	C200.079071,688.077637 208.352158,680.628052 218.678909,677.274109 
	C230.427994,673.458191 237.421600,675.471741 241.569778,685.287903 
	C243.306793,689.398376 241.285095,693.261475 240.688828,697.120361 
	C242.844666,698.057800 244.285767,696.954407 245.742325,696.314331 
	C250.899200,694.048157 255.664078,694.048523 259.989624,698.193909 
	C264.222443,702.250366 265.664825,706.720825 263.700226,712.573120 
	C260.647034,721.668274 254.648727,728.743896 248.630249,735.786926 
	C239.805099,746.114258 230.670731,756.177246 221.459976,766.588135 
	C223.862305,767.015564 224.894409,765.482910 226.194305,764.598511 
	C234.545837,758.916687 242.289673,752.308899 251.521576,747.970947 
	C256.164581,745.789124 262.136475,746.811340 265.870422,750.381531 
	C269.610016,753.957092 270.653320,759.382996 269.261536,764.114868 
	C268.027710,768.309814 265.476196,771.875916 263.146118,776.650635 
	C269.378113,774.045166 274.379852,774.154175 279.010498,777.273132 
	C283.919739,780.579712 283.622009,786.359924 284.665039,791.281006 
	C287.784363,791.073608 289.403748,789.210754 291.430969,788.141296 
	C299.307281,783.986023 305.261383,784.024414 310.509003,790.668701 
	C314.775543,796.070679 312.892853,801.136108 310.365265,806.489075 
	C306.898468,813.831055 302.396912,820.559509 297.590393,827.933105 
	C304.503082,823.000977 310.841980,818.759155 316.855530,814.097595 
	C321.558319,810.452209 328.606476,808.697205 328.351501,800.569946 
	C328.312225,799.317932 330.086426,797.745117 331.363708,796.767090 
	C334.679535,794.228088 338.262115,792.961304 342.508057,794.849243 
	C347.327057,796.992188 349.370941,800.745850 349.961670,805.757202 
	C350.843079,813.234680 351.119720,820.838928 354.376465,829.144836 
	C357.517578,822.265747 364.152344,820.414490 368.611298,815.846741 
	C373.728943,810.604126 378.998810,805.525269 383.638855,799.834473 
	C386.552856,796.260559 391.425049,793.881775 394.669281,796.212341 
	C402.172577,801.602234 412.212402,805.415833 415.024139,815.060852 
	C420.678894,834.458191 426.342255,853.806030 434.429443,872.351074 
	C435.344452,874.449341 435.733276,877.151245 438.232819,878.338379 
	C440.728668,876.695068 440.026947,874.328796 440.040131,872.298584 
	C440.107300,861.966614 440.049042,851.633789 440.040253,841.301270 
	C440.027405,826.135864 439.926361,810.969604 440.052246,795.805359 
	C440.106873,789.224182 444.375702,785.644104 451.520203,785.636353 
	C459.194672,785.628052 461.882019,788.106750 462.279755,795.480347 
	C462.529419,800.109009 463.779419,804.629639 464.734375,809.085083 
	C467.984528,824.249451 474.132690,838.430359 481.432343,852.082581 
	C482.670624,854.398438 483.331329,857.272888 486.647705,859.303040 
	C484.538330,851.010315 482.973450,843.508484 480.823029,836.086975 
	C478.309753,827.413086 474.477814,819.012573 474.757660,809.590942 
	C474.896423,804.918396 475.968201,801.236267 480.630341,799.780701 
	C487.363068,797.678650 492.610809,799.493042 495.194855,804.826416 
	C497.880646,810.369873 498.871582,816.486084 500.289459,822.430542 
	C501.884979,829.119812 504.970032,835.046387 508.719086,840.716309 
	C508.143311,836.414062 506.261475,832.564331 505.248260,828.413086 
	C504.187408,824.066589 504.622589,819.834412 504.435547,815.555298 
	C503.939056,804.196167 509.791229,799.459290 521.000122,802.382935 
	C521.720581,801.223267 522.586060,800.023315 523.254089,798.721985 
	C526.370605,792.651184 528.490112,791.515259 537.296387,792.549561 
	C541.735229,793.070984 543.918396,796.594910 545.293701,800.500916 
	C549.245850,811.724976 551.429199,823.416931 554.288757,834.929626 
	C555.001831,837.800476 555.985779,840.495911 559.440125,840.792053 
	C563.629639,841.151184 567.812378,841.010986 571.196289,838.013794 
	C571.610107,837.647217 571.485413,836.430725 571.310669,835.677612 
	C568.299988,822.703064 565.303955,809.724365 562.166870,796.780090 
	C560.768494,791.009949 563.916931,783.813477 568.802551,782.237732 
	C575.312561,780.138062 581.210083,782.882935 583.639221,789.606323 
	C585.197144,793.918152 586.163391,798.450867 587.279114,802.913574 
	C588.664429,808.454956 590.425171,813.823669 593.693542,819.371521 
	C593.936157,818.157654 594.200378,817.661133 594.089417,817.271301 
	C590.612305,805.055847 587.124634,792.843262 583.580444,780.647095 
	C581.550964,773.663452 584.574768,767.178345 590.964600,765.031494 
	C596.097290,763.306946 602.580017,766.973206 604.870239,773.472717 
	C607.796326,781.776917 611.269775,789.824158 614.952637,797.804749 
	C616.378662,800.894958 618.321350,801.415466 621.545959,799.932129 
	C618.637024,792.570557 615.883179,785.493286 613.045105,778.449951 
	C610.227112,771.456543 615.499573,763.127869 623.054077,762.782593 
	C624.877808,762.699280 626.698059,762.883606 628.417480,761.963684 
	C631.656677,760.230652 634.696655,760.866699 637.923523,762.426208 
	C641.681030,764.241882 644.187439,767.337524 646.990601,770.146118 
	C652.544617,775.710999 658.008911,781.365295 663.510315,786.982666 
	C663.753296,784.929749 663.138977,783.607056 662.505737,782.293457 
	C658.183289,773.327209 653.736023,764.418396 649.582397,755.374695 
	C647.487305,750.813049 649.590637,745.812622 654.541809,742.251709 
	C658.950500,739.081055 662.762695,739.416809 667.163330,743.233704 
	C668.362305,744.273560 669.098083,746.026733 671.585083,746.080017 
	C673.921814,736.702271 682.413452,739.293701 689.170593,738.260681 
	C687.545105,731.683655 686.650513,725.806335 690.368591,720.353271 
	C691.789734,718.268982 690.516235,716.982971 689.164001,715.638000 
	C684.083679,710.584961 678.960327,705.573181 673.970398,700.432068 
	C670.965149,697.335815 668.889404,693.602112 666.872375,689.774231 
	C663.950928,684.229980 667.595825,679.643799 668.890930,674.403687 
	C660.603821,676.980530 654.608643,673.329834 649.162048,668.468872 
	C640.847900,661.048584 633.078064,653.115601 627.330627,643.431152 
	C626.539001,642.097290 625.382324,640.934326 623.652100,641.665344 
	C622.144958,642.302185 620.481079,643.035889 620.305420,645.017700 
	C620.143738,646.840271 620.461487,648.590759 620.903992,650.410889 
	C623.036743,659.182983 625.414062,667.941223 625.337708,677.078064 
	C625.250244,687.543396 615.761230,694.242920 605.977722,690.470093 
	C602.915710,689.289185 600.692444,689.828064 598.016968,691.183716 
	C585.878845,697.334106 573.684753,703.472290 560.785339,707.821716 
	C550.322754,711.349487 539.683777,714.448792 529.147156,717.750610 
	C515.540588,722.014465 501.697266,725.081665 487.784454,727.638367 
	C474.174957,730.139282 460.278625,731.377441 446.512787,732.695251 
	C434.198486,733.874084 421.822388,736.025635 409.292755,734.987000 
	C403.995880,734.547852 398.632874,734.898804 393.299927,734.906860 
	C391.043243,734.910278 388.913422,735.177795 388.085266,737.790588 
	C386.278534,743.490845 382.327026,746.630310 376.430359,747.044495 
	C370.017517,747.494934 366.611511,742.707458 364.202759,738.182678 
	C358.746155,727.932556 354.176697,717.211731 349.194885,706.706726 
	C346.277130,700.554199 343.260101,694.448730 340.287720,688.322083 
	C339.235413,699.461548 339.274414,710.253784 339.217926,721.045654 
	C339.192169,725.968567 334.788208,730.773865 330.124115,731.185120 
	C323.664093,731.754700 317.720551,728.300415 317.196503,722.979065 
	C316.081390,711.655273 313.791351,700.449524 313.719971,689.021790 
	C313.708527,687.189453 313.239410,685.477295 312.789886,683.692261 
	C311.405029,678.192993 310.316406,672.320496 314.160309,667.487427 
	C316.480865,664.569641 317.044800,661.712097 316.949310,658.315002 
	C316.860443,655.151794 316.634155,651.937866 317.060028,648.827271 
	C317.737183,643.881226 318.897430,638.802551 323.080444,635.601196 
	C330.339478,630.045593 337.039673,633.158936 342.141815,641.229126 
	C350.691895,654.753052 356.500946,669.702332 363.103729,684.224670 
	C363.909882,685.997742 364.662201,687.725586 366.158264,689.171997 
	C368.090179,686.859070 367.612549,684.448059 367.616333,682.183167 
	C367.647858,663.351257 367.576324,644.519043 367.644806,625.687317 
	C367.675293,617.305542 373.005676,612.748230 381.242920,613.786987 
	C386.224030,614.415161 389.660706,617.975098 391.157623,624.248413 
	C392.269409,628.907593 394.032501,633.366821 394.927795,638.117310 
	C395.520630,641.262817 397.199799,644.125000 401.600128,641.806335 
	C404.117096,640.480042 406.534821,641.407715 409.016968,643.057129 
	C413.585266,646.092834 414.469635,650.984436 416.699799,655.368530 
	C420.210052,662.268921 424.716064,668.695068 429.144867,675.083252 
	C431.601837,678.627197 434.757629,681.686707 437.724030,685.109436 
	C439.006744,683.156311 439.001770,681.499268 438.588837,680.188477 
	C436.051971,672.135681 436.334595,663.548645 433.722504,655.511841 
	C432.002014,650.218384 434.112244,644.173645 438.205566,641.828064 
	C444.139862,638.427612 447.911560,639.020752 452.940643,643.831726 
	C454.950500,645.754395 456.051758,648.155945 457.126251,650.557373 
	C460.911438,659.017090 465.957458,666.749634 470.810638,674.637390 
	C468.685883,668.405212 466.031891,662.411743 463.637238,656.316406 
	C461.360382,650.520935 463.626465,644.540771 469.037323,641.314697 
	C474.019989,638.343933 479.478516,639.479309 483.657349,644.379272 
	C487.105621,648.422668 487.962860,653.648987 489.973633,658.346863 
	C491.558655,662.050049 493.168396,665.699829 497.536194,668.593018 
	C494.186371,659.726013 490.663635,652.122314 486.033447,644.999451 
	C484.173950,642.138855 481.485535,639.026367 482.210236,635.509460 
	C483.034119,631.511047 484.812073,627.058411 489.420563,626.137085 
	C494.262085,625.169189 499.762360,624.571777 502.942169,629.774658 
	C506.949371,636.331299 512.031006,642.031311 516.779297,647.979675 
	C520.747681,652.951111 525.397156,657.378845 529.862061,662.172913 
	C530.778320,660.674133 529.951111,660.116333 529.612793,659.421387 
	C525.037964,650.023804 519.733948,640.986450 515.754272,631.294128 
	C513.787170,626.503174 514.923035,619.795349 518.255432,616.919189 
	C522.429138,613.316895 527.040466,613.231384 532.431885,616.566956 
	C535.673279,618.572449 536.719727,622.096008 538.024658,625.207642 
	C542.721069,636.405945 549.114807,646.253296 558.916748,653.860413 
	C557.143860,644.486328 551.741638,636.765991 548.564392,628.142395 
	C546.551880,622.680298 550.293823,614.224609 555.594238,613.921448 
	C564.136047,613.432800 567.358643,611.826965 571.152466,622.248474 
	C576.059204,635.727234 586.468933,644.977539 595.238708,655.518066 
	C596.140259,656.601624 597.155701,657.939941 599.049194,657.306763 
	C600.364258,655.115967 598.244934,653.596497 597.828735,651.783630 
	C595.087219,639.842834 591.554138,628.118652 587.029297,616.730225 
	C584.101257,609.360718 588.215576,602.299683 596.143799,601.725708 
	C598.257629,601.572693 600.391846,601.702576 602.433472,601.702576 
	C602.712830,600.826050 602.882996,600.360596 603.009766,599.883545 
	C604.540894,594.120117 607.675720,589.874329 614.000366,589.173645 
	C618.714050,588.651550 623.465698,592.528931 626.018433,598.702209 
	C628.635681,605.031799 632.402588,610.717407 635.864197,616.570618 
	C637.188599,618.810059 638.793213,620.193542 642.009277,619.154541 
	C647.139526,617.497070 651.674622,619.384583 654.831604,623.590942 
	C661.896606,633.004578 669.463013,642.071472 674.399719,652.956726 
	C677.289856,659.329346 677.475769,665.245117 673.618286,671.181885 
	C673.274170,671.711548 672.308533,672.111267 672.804504,673.050964 
	C680.717468,671.865112 688.152161,672.675293 694.922852,677.144226 
	C696.469543,678.165039 698.100159,679.197571 699.794006,677.300415 
	C704.594849,671.923279 710.395874,671.769653 716.686829,674.043640 
	C719.747620,675.150024 722.839966,676.169250 726.805847,677.533325 
	C725.874695,676.203735 725.526611,675.502686 724.999146,674.984192 
	C716.808594,666.933289 709.234375,658.229309 700.020020,651.260620 
	C695.396362,647.763733 692.070923,643.150391 689.400757,638.164673 
	C683.946411,627.980713 692.243408,619.133972 700.716675,618.909241 
	C708.096741,618.713562 715.640625,617.471069 722.949158,620.390259 
	C724.892395,621.166443 727.483765,621.097656 729.616394,620.131165 
	C729.942139,618.979980 729.320862,618.363403 728.679138,617.874268 
	C724.853210,614.958252 720.871399,612.233032 717.180054,609.157837 
	C712.726929,605.447937 708.019165,601.944885 705.121338,596.683350 
	C703.534790,593.802490 703.466553,591.178467 705.152649,588.219116 
	C709.331726,580.884399 715.684387,579.397278 726.425049,582.704102 
	C739.981018,586.877686 753.842102,590.030396 767.244751,594.750916 
	C768.939392,595.347778 771.215332,597.174988 772.469788,594.496155 
	C773.502441,592.290894 771.229919,590.959778 769.905945,589.547180 
	C758.761841,577.657532 747.865601,565.554871 738.064697,552.512390 
	C734.252808,547.439819 733.388000,541.520203 735.954895,536.061157 
	C738.443298,530.769104 743.964294,528.396118 749.525085,530.237732 
	C758.574768,533.234863 768.593689,529.475159 776.687439,535.305237 
	C778.461914,533.343994 778.056519,531.597168 778.078918,529.994019 
	C778.281372,515.517517 778.490234,501.040588 778.572144,486.563080 
	C778.648071,473.142944 778.569336,459.768951 777.071838,446.348724 
	C776.341736,439.806213 775.579773,433.147736 774.470154,426.740509 
	C771.942749,412.146606 767.976990,397.802734 764.648254,383.345154 
	C764.375305,382.159790 764.243896,380.870056 762.947754,380.555634 
	C756.389099,378.964478 754.998535,374.007843 753.261230,368.193024 
	C749.862305,356.817261 745.076904,345.860687 741.008301,334.678558 
	C737.506775,325.054993 735.235291,314.827820 730.589966,305.810181 
	C721.972107,289.080719 710.306274,274.206177 697.576965,260.415100 
	C687.429688,249.421402 676.722107,238.902527 666.113525,228.315842 
	C648.442932,210.681793 631.597290,192.223236 614.263794,174.247406 
	C610.112488,169.942261 605.407898,166.170639 600.071655,161.353821 
	C599.213013,169.086014 598.530212,175.279831 597.835999,181.472397 
	C597.258911,186.620804 592.925232,190.949539 588.132812,191.181061 
	C582.153259,191.469955 576.427917,188.194595 575.937744,183.363754 
	C575.354797,177.617874 574.724243,171.898270 574.018066,166.169937 
	C573.004150,157.945831 570.611572,150.009247 569.814270,141.785294 
	C569.634766,139.933105 568.429138,139.293015 566.701111,139.280609 
	C564.847534,139.267303 563.071777,139.737762 563.206848,141.874710 
	C563.436523,145.509506 561.724609,148.689438 560.886780,151.977737 
	C558.690796,160.596298 555.462646,166.350388 544.895996,165.202591 
	C540.793335,164.756958 538.011353,162.312851 535.341614,159.635941 
	C534.692871,159.885345 534.205994,160.005219 533.786499,160.243683 
	C524.504150,165.520508 518.557922,163.877838 513.905518,154.424484 
	C512.005371,150.563538 510.695892,146.414276 509.064209,142.418030 
	C508.055267,139.947006 506.227417,138.913345 503.508942,139.274704 
	C500.850311,139.628128 500.423157,141.463989 500.364380,143.586746 
	C500.070435,154.204346 498.403198,164.746857 498.966431,175.423553 
	C499.350708,182.707581 496.142029,187.549194 490.442780,189.537933 
	C484.547699,191.594986 480.038940,189.992325 475.315552,183.601334 
	C470.947662,177.691315 467.961121,170.975082 464.952271,164.300980 
	C463.436493,160.938797 462.114990,157.466614 459.261871,153.581833 
	C459.139008,156.326157 459.226868,157.978485 458.963745,159.572906 
	C458.134857,164.596130 458.209991,170.102158 456.063171,174.509415 
	C450.463318,186.005402 438.178162,184.505051 430.923462,175.246994 
	C427.153412,170.435883 424.096008,165.069153 420.368774,160.220886 
	C416.803314,155.583084 414.675110,149.822357 409.741821,145.911713 
	C408.306183,148.581329 407.729370,151.204407 408.824463,153.437897 
	C410.232269,156.309219 409.525330,159.441162 410.428253,162.113098 
	C412.584534,168.493912 411.300385,175.287628 413.501434,181.616180 
	C415.346222,186.920502 412.956421,194.074890 408.648956,197.423935 
	C402.346161,202.324356 393.403381,198.859955 390.019104,190.166275 
	C388.304779,185.762405 386.681305,181.323166 384.637238,175.891434 
	C383.669678,181.819275 385.730652,186.266663 385.891449,190.696121 
	C386.318787,202.467590 389.163757,214.055130 388.165741,225.929016 
	C387.612366,232.512955 385.722321,235.263809 378.610077,237.426422 
	C374.827240,238.576645 368.691895,235.994827 366.259613,231.919312 
	C363.539124,227.360825 361.114655,222.626648 358.511902,217.996750 
	C354.896912,211.566269 351.235870,205.161652 347.238892,198.119431 
	C344.279175,204.768585 340.873444,209.136490 333.468872,208.452576 
	C326.098938,207.771835 324.593506,200.989441 320.233704,196.239029 
	C320.307770,197.642548 320.226440,198.321793 320.393524,198.933136 
	C322.675690,207.283325 321.582092,210.626511 314.236115,214.992050 
	C311.642120,216.533554 311.661835,218.500900 311.604675,220.859543 
	C311.412750,228.775894 302.792511,234.200592 295.448730,231.671570 
	C289.853333,229.744644 286.748108,225.142975 282.598480,221.652298 
	C280.913605,220.234985 279.692108,217.534485 276.841614,219.690445 
	C274.367065,221.562042 275.406708,223.677628 276.329926,225.941177 
	C279.836731,234.539001 283.854431,242.932419 286.509918,251.873276 
	C288.619629,258.976379 286.990814,267.137848 278.139618,269.863678 
	C271.860504,271.797394 267.709045,268.235291 263.532074,264.877228 
	C257.393890,259.942535 253.857056,252.609421 247.925720,247.404297 
	C246.000809,245.715088 244.582657,244.849564 242.486023,246.956940 
	C236.147354,253.328094 229.517014,259.452026 225.618866,267.793060 
	C224.453537,270.286560 223.003082,272.578033 220.058289,273.065674 
	C212.981796,274.237427 209.805405,279.681671 207.384644,285.311646 
	C200.698959,300.860626 194.237305,316.514618 188.084747,332.282227 
	C178.200455,357.613342 168.663757,383.079926 158.918350,408.465515 
	C156.128159,415.733643 152.769226,422.900055 152.223877,430.729462 
	C151.843430,436.191223 149.757568,439.864990 144.876328,442.130585 
	C143.428604,442.802521 141.529617,443.141663 141.400528,445.274323 
	C141.109879,450.076599 137.966858,452.720734 134.074570,454.555298 
	C131.927643,455.567291 131.195740,456.910217 131.165268,459.176392 
	C130.877075,480.607391 130.937836,502.043030 133.354095,523.354614 
	C133.857742,527.796753 133.582321,532.378296 134.718002,536.676270 
	C137.918259,548.787415 139.300690,561.329834 143.267593,573.234619 
	C146.351562,582.489624 147.981827,592.170471 151.966370,601.812622 
M857.822449,477.499725 
	C858.368958,466.870514 856.838745,456.367615 856.129272,445.805878 
	C855.497009,436.394806 855.111145,427.041016 852.723206,417.852539 
	C849.808411,406.636810 842.132507,399.816284 830.822388,399.534546 
	C822.411865,399.325043 813.947083,399.010986 805.652222,401.368256 
	C801.343262,402.592834 794.892944,409.296478 794.912720,413.108917 
	C794.945496,419.429474 796.631592,425.570129 797.712524,431.677307 
	C799.417725,441.311859 800.307434,451.066833 800.622559,460.654358 
	C801.464905,486.285492 800.973633,511.962158 800.890991,537.620361 
	C800.877014,541.953796 802.018188,544.469849 806.655945,546.016357 
	C812.176392,547.857300 817.322327,546.109924 822.190247,545.162781 
	C837.784546,542.128540 847.792358,532.141846 852.841248,517.141357 
	C857.065369,504.591309 858.253967,491.649658 857.822449,477.499725 
M114.070602,548.126343 
	C113.660507,542.529175 113.149994,536.855957 112.249916,531.407959 
	C110.337433,519.831970 110.498924,508.126709 108.924423,496.558380 
	C108.291840,491.910522 109.345360,487.102844 108.288673,481.967529 
	C102.909149,485.436798 97.884491,485.706482 92.285103,483.518860 
	C88.309219,481.965515 84.820580,483.461182 83.210892,488.032715 
	C80.530006,495.646484 78.315575,503.320648 76.813828,511.306915 
	C74.769218,522.180176 73.157898,533.123535 72.387001,544.089478 
	C71.559525,555.860291 72.169487,567.735962 72.245552,579.565369 
	C72.327225,592.266418 78.101952,601.371460 89.694969,606.707458 
	C96.629211,609.899170 103.513809,613.203430 110.501907,616.272217 
	C118.003441,619.566528 125.761292,622.087280 134.429337,623.650452 
	C133.031036,618.457703 132.059586,613.809143 130.526688,609.353760 
	C126.027802,596.277405 122.340134,582.989441 119.306557,569.502991 
	C117.758652,562.621521 115.943962,555.800049 114.070602,548.126343 
M734.706848,652.799927 
	C741.092224,658.427063 747.477600,664.054199 754.571289,670.305542 
	C756.182983,665.130798 757.683289,660.848877 758.807129,656.470337 
	C759.334717,654.414490 758.542236,652.255310 756.231201,651.715393 
	C746.240906,649.381409 736.721375,645.211243 725.606689,643.658691 
	C728.886780,646.947998 731.551453,649.620117 734.706848,652.799927 
M613.909729,88.735786 
	C612.510437,94.319115 611.601807,100.006195 610.337524,105.623528 
	C607.219116,119.478401 607.464478,119.536171 619.007751,125.042297 
	C619.262207,125.163658 619.625183,125.057579 620.411133,125.057579 
	C619.686829,112.711632 615.556885,100.976685 613.909729,88.735786 
M391.085236,829.990540 
	C390.583862,827.354980 389.143738,828.206055 387.950287,829.288269 
	C385.489349,831.519653 383.106842,833.844299 380.801880,836.236328 
	C380.157593,836.905029 379.304291,838.203369 379.553345,838.772034 
	C381.819183,843.944946 381.481873,850.169922 385.317169,854.552551 
	C390.520325,853.593689 391.900146,850.518494 391.651428,846.102661 
	C391.361755,840.959839 391.327606,835.802612 391.085236,829.990540 
M151.441818,327.016327 
	C147.638855,333.332764 142.161392,351.035004 142.943939,356.360352 
	C147.789948,343.766663 152.232971,332.220245 156.675995,320.673828 
	C156.413513,320.546478 156.151047,320.419128 155.888565,320.291809 
	C154.537109,322.327362 153.185638,324.362946 151.441818,327.016327 
M352.687042,135.281097 
	C354.067871,134.113678 357.047607,133.899384 355.937561,131.158096 
	C354.866150,128.512238 352.565277,129.376007 350.365570,129.862076 
	C347.721222,130.446411 345.396210,131.660889 343.063019,132.869934 
	C341.147827,133.862396 339.992249,135.242615 341.252045,137.678482 
	C342.454468,140.003448 344.106323,139.565201 345.846375,138.763031 
	C347.949341,137.793549 349.981232,136.669891 352.687042,135.281097 
M389.923492,708.536072 
	C390.192780,711.587891 391.678894,712.615112 394.916321,711.332092 
	C394.943115,706.257385 392.515137,701.989258 390.701630,696.161804 
	C389.652039,700.895447 389.229523,704.278564 389.923492,708.536072 
M422.635071,705.246826 
	C422.461365,707.528503 422.143066,709.825562 423.366760,712.195129 
	C425.785370,712.384827 428.131927,712.494141 430.189331,710.051819 
	C427.587372,708.145264 426.906036,704.158508 422.635071,705.246826 
M573.169495,862.345520 
	C572.200012,865.236694 574.908569,866.011047 576.198364,867.624390 
	C576.284119,865.337280 578.989441,861.893188 573.169495,862.345520 
z"/>
<path fill="#000000" opacity="1.000000" stroke="none" 
	d="
M237.468658,1025.000000 
	C243.591370,1019.851562 251.120941,1016.256653 258.568329,1012.681702 
	C272.915039,1005.794983 287.508850,999.425964 302.696838,994.531128 
	C314.817902,990.624817 327.159241,987.487122 339.618195,985.019165 
	C359.251831,981.130066 379.221008,981.616333 399.124756,981.551270 
	C401.079803,981.544922 402.560181,982.013794 404.056549,983.353821 
	C409.728455,988.432861 410.229004,990.685181 407.039886,999.639526 
	C406.977936,1000.023193 407.010315,999.994080 406.684174,1000.101135 
	C402.233215,1002.948242 397.804321,1004.244629 392.747772,1004.049500 
	C376.170959,1003.409912 359.597229,1004.030701 343.354126,1007.463318 
	C329.825409,1010.322205 316.299835,1013.495056 303.364075,1018.555298 
	C298.487579,1020.462769 293.105988,1021.344727 289.000000,1025.000000 
	C271.979095,1025.000000 254.958206,1025.000000 237.468658,1025.000000 
z"/>
<path fill="#000000" opacity="1.000000" stroke="none" 
	d="
M823.468628,1025.000000 
	C822.747253,1022.874756 823.805054,1020.689514 820.929749,1019.009338 
	C815.986816,1016.121094 814.403381,1010.500793 816.038635,1004.603210 
	C817.018860,1001.067993 822.307251,997.163025 826.790710,996.856689 
	C835.188171,996.283142 843.302612,994.286011 851.374756,992.089417 
	C858.039246,990.275879 865.153931,992.931763 867.643860,998.302368 
	C870.041687,1003.474304 867.742554,1010.619202 862.744141,1013.651367 
	C859.816650,1015.427368 856.346497,1015.934204 853.235168,1016.086609 
	C847.544739,1016.365356 845.379395,1018.726501 846.016174,1024.575928 
	C838.645752,1025.000000 831.291504,1025.000000 823.468628,1025.000000 
z"/>
<path fill="#000000" opacity="1.000000" stroke="none" 
	d="
M887.468262,1025.000000 
	C892.491089,1017.513489 899.908875,1017.243835 905.912720,1024.657715 
	C899.978821,1025.000000 893.957703,1025.000000 887.468262,1025.000000 
z"/>
<path fill="#000000" opacity="1.000000" stroke="none" 
	d="
M433.619141,483.999939 
	C433.624023,476.672852 433.475952,469.841339 433.672760,463.019806 
	C433.899658,455.153687 441.246277,450.004791 448.676178,452.431702 
	C452.944916,453.826050 455.150024,457.002319 455.158813,461.494934 
	C455.202881,483.974274 455.924896,506.487091 454.898224,528.919006 
	C454.385223,540.127136 451.165741,551.283569 447.668152,562.164490 
	C445.920532,567.601196 445.736694,573.528687 444.133057,579.026367 
	C442.006622,586.316284 439.159332,593.394653 436.685852,600.585938 
	C436.322266,601.643005 436.311340,602.821411 436.103943,604.158203 
	C439.680420,605.453857 443.174103,604.755676 446.580688,604.796021 
	C454.905243,604.894775 463.232422,604.761475 471.557281,604.848022 
	C478.129730,604.916321 483.135803,609.835876 483.142181,616.016174 
	C483.148254,621.941528 478.213776,627.011292 471.916748,627.054077 
	C455.599121,627.165100 439.279846,627.142273 422.961945,627.047729 
	C417.104584,627.013855 411.113373,620.649536 410.801727,614.776306 
	C410.235382,604.102478 415.234436,594.864319 418.512695,585.246460 
	C421.237732,577.251953 423.434692,569.233215 424.933105,560.920166 
	C426.128632,554.287659 428.237762,547.804504 430.173828,541.324524 
	C432.650421,533.035583 433.617706,524.584106 433.596039,515.971252 
	C433.569641,505.480865 433.608185,494.990387 433.619141,483.999939 
z"/>
<path fill="#000000" opacity="1.000000" stroke="none" 
	d="
M604.347900,457.355133 
	C615.237244,462.267517 616.281128,471.258972 606.997559,478.079132 
	C604.767761,479.717224 603.937073,481.927155 603.198303,484.298004 
	C599.007202,497.747406 591.423828,507.903351 577.040527,511.606384 
	C566.655273,514.280212 545.062805,506.984009 542.335693,492.213745 
	C539.117188,474.781342 544.070251,461.105988 556.835938,449.606354 
	C559.015686,447.642731 561.534058,446.923462 564.531860,446.685272 
	C572.504272,446.051819 580.023193,447.515778 587.213806,450.748932 
	C590.821838,452.371155 593.025635,455.563995 594.944153,459.224396 
	C597.886597,458.262329 600.675354,456.406464 604.347900,457.355133 
z"/>
<path fill="#000000" opacity="1.000000" stroke="none" 
	d="
M299.734192,469.653259 
	C309.937378,464.619965 319.685364,459.000244 331.070435,459.033875 
	C343.532837,459.070709 356.605957,470.111938 356.573669,484.314362 
	C356.534943,501.343140 346.066315,516.259766 330.592194,520.301758 
	C317.833191,523.634583 298.614105,521.059509 292.136444,505.449524 
	C287.202087,493.558594 289.257843,479.624786 299.734192,469.653259 
z"/>
</svg>