 <svg  version="1.0" xmlns="http://www.w3.org/2000/svg"  width="900.000000pt" height="957.000000pt" viewBox="0 0 900.000000 957.000000"  preserveAspectRatio="xMidYMid meet">  <g transform="translate(0.000000,957.000000) scale(0.100000,-0.100000)" fill="#ffffff" stroke="none"> <path d="M5720 9402 c-37 -20 -83 -94 -94 -152 -4 -19 -11 -44 -15 -55 -5 -11 -23 -83 -41 -160 -18 -77 -39 -162 -46 -190 -7 -27 -15 -66 -18 -85 -6 -51 -36 -193 -41 -198 -2 -2 -7 9 -10 24 -4 16 -9 36 -12 44 -3 8 -11 44 -19 80 -28 143 -49 206 -78 236 -34 34 -80 42 -134 23 -37 -13 -81 -93 -93 -168 -14 -84 -25 -116 -39 -116 -11 0 -17 17 -22 61 -12 114 -35 166 -85 193 -37 19 -76 13 -115 -19 -31 -25 -37 -37 -43 -85 -8 -67 -24 -68 -44 -4 -17 52 -67 157 -84 173 -29 28 -64 46 -90 46 -26 0 -74 -24 -88 -44 -4 -5 -20 -6 -35 -2 -80 20 -90 19 -127 -14 -34 -29 -36 -35 -39 -98 l-3 -67 -36 -3 c-34 -3 -37 -1 -54 43 -18 50 -28 102 -49 280 -8 61 -19 127 -25 147 -43 137 -224 82 -205 -62 3 -25 10 -79 14 -120 7 -64 17 -120 46 -261 8 -35 -4 -41 -95 -51 -128 -15 -163 -15 -172 2 -36 67 -54 129 -78 270 -18 103 -58 145 -130 137 -60 -7 -83 -33 -89 -101 -5 -60 -8 -64 -38 -41 -34 26 -86 19 -122 -16 -37 -36 -47 -67 -37 -107 19 -78 38 -302 26 -319 -5 -8 -185 -103 -195 -103 -8 0 -46 124 -46 150 0 43 -47 80 -102 80 -42 0 -50 -4 -77 -37 -33 -40 -41 -95 -20 -134 5 -11 9 -39 7 -62 l-3 -42 -52 86 c-29 48 -53 91 -53 95 -1 5 -20 34 -43 64 -55 70 -102 91 -153 67 -67 -32 -88 -101 -60 -195 60 -200 79 -260 88 -279 6 -12 11 -39 12 -59 2 -69 -25 -57 -134 58 -59 62 -115 112 -138 122 -37 17 -41 17 -73 1 -19 -10 -46 -32 -61 -49 l-26 -31 -10 26 c-29 75 -123 102 -181 53 -26 -22 -31 -33 -31 -71 0 -52 15 -88 128 -311 45 -90 80 -168 77 -173 -4 -5 -14 -13 -25 -19 -16 -8 -28 6 -98 113 -124 188 -115 178 -180 175 -51 -3 -58 -6 -79 -37 -13 -19 -23 -44 -23 -57 0 -28 62 -152 137 -278 61 -102 65 -83 -47 -198 -189 -192 -337 -401 -461 -648 -31 -63 -65 -133 -74 -155 -29 -70 -46 -109 -62 -140 -25 -50 -75 -139 -85 -151 -16 -21 -186 -368 -203 -414 -50 -139 -53 -165 -30 -210 18 -35 45 -51 89 -53 27 -2 31 -6 30 -29 0 -16 -1 -150 -2 -299 l-2 -271 -22 14 c-30 20 -128 48 -165 48 -70 0 -163 -50 -213 -113 -34 -42 -76 -165 -100 -287 -5 -25 -14 -67 -19 -95 -5 -27 -10 -78 -10 -111 -1 -34 -7 -77 -14 -95 -9 -25 -13 -97 -12 -259 1 -224 7 -273 42 -360 28 -68 38 -82 104 -144 84 -80 277 -178 461 -236 43 -14 78 -30 78 -36 0 -7 -11 -35 -25 -62 -15 -31 -25 -67 -25 -94 0 -37 5 -49 33 -76 27 -26 41 -32 76 -32 23 0 51 5 61 10 34 18 32 -8 -3 -47 -19 -21 -48 -53 -63 -72 -16 -19 -49 -56 -73 -84 -24 -28 -49 -65 -57 -82 -17 -40 -10 -93 15 -118 24 -24 92 -38 118 -23 36 21 123 90 123 98 0 4 7 8 15 8 8 0 15 -2 15 -4 0 -3 -41 -66 -92 -141 -80 -121 -92 -144 -96 -189 -4 -45 -1 -56 23 -84 24 -29 32 -32 81 -32 64 0 114 28 328 182 21 15 43 25 48 22 11 -7 1 -19 -102 -130 -88 -95 -90 -98 -113 -147 -16 -36 -16 -39 3 -77 25 -48 45 -60 104 -60 34 0 56 7 85 27 21 16 49 35 61 43 13 8 36 26 52 39 26 21 58 23 58 4 0 -4 -23 -39 -50 -78 -103 -148 -122 -183 -127 -245 -6 -58 -5 -60 31 -96 36 -36 38 -37 99 -32 54 5 75 13 145 56 63 39 84 48 88 37 5 -11 -24 -64 -46 -85 -16 -14 -70 -92 -98 -138 -36 -59 -40 -91 -16 -132 33 -54 94 -74 144 -45 38 21 50 18 50 -13 0 -40 56 -92 98 -92 31 0 93 32 172 89 41 29 44 30 62 15 19 -18 24 -40 10 -46 -11 -5 -65 -77 -100 -136 -43 -71 -43 -119 -1 -161 26 -26 38 -31 81 -31 43 0 60 7 119 46 38 26 74 53 80 60 6 8 16 14 21 14 6 0 23 11 40 25 28 24 31 24 59 9 41 -21 46 -40 17 -72 -13 -15 -31 -37 -39 -48 -15 -23 -142 -191 -159 -211 -15 -18 -70 -135 -70 -150 0 -7 11 -31 25 -52 19 -31 32 -40 62 -46 52 -8 81 4 148 65 31 28 60 49 63 45 10 -9 2 -96 -13 -148 -17 -57 -6 -89 42 -127 23 -18 35 -20 73 -15 25 4 51 12 58 17 9 8 12 3 12 -23 0 -52 18 -105 46 -139 22 -26 33 -30 73 -30 39 0 52 5 73 28 25 26 50 86 54 127 1 11 7 54 14 95 6 41 17 134 25 205 13 128 22 186 31 214 9 28 38 -17 51 -77 6 -31 18 -82 26 -112 52 -198 67 -220 147 -220 86 0 110 40 110 187 l0 96 20 -18 c12 -11 27 -33 35 -49 17 -36 55 -154 55 -170 0 -6 10 -30 22 -53 22 -42 56 -63 99 -63 23 0 46 -44 55 -101 4 -24 10 -48 14 -54 5 -5 11 -32 15 -60 4 -27 11 -54 15 -60 11 -15 30 -134 23 -150 -3 -8 -10 -15 -17 -15 -6 0 -23 -7 -38 -14 -24 -13 -28 -13 -28 -1 0 8 5 17 10 20 6 3 10 24 10 45 0 31 -6 43 -32 66 l-33 27 -248 -6 c-136 -3 -253 -10 -260 -15 -7 -5 -37 -12 -69 -16 -82 -9 -181 -34 -346 -86 -70 -23 -186 -65 -217 -80 -11 -5 -42 -18 -70 -30 -52 -22 -161 -76 -255 -126 l-55 -29 231 -3 232 -2 83 31 c122 46 344 109 384 109 11 0 25 4 30 9 14 14 193 32 390 40 94 3 176 8 183 11 10 4 14 -16 15 -85 2 -50 6 -96 10 -102 6 -9 42 -13 123 -13 102 0 133 7 105 24 -14 9 -43 110 -39 136 2 17 12 26 34 32 16 4 41 19 53 32 22 24 23 31 19 108 -3 46 -10 94 -16 108 -9 23 -24 78 -43 160 -21 93 -30 127 -38 145 -10 22 -25 66 -67 198 -32 98 -28 111 33 123 l31 6 62 -121 c69 -136 93 -161 154 -161 95 0 116 47 116 260 0 154 1 158 23 173 38 25 94 37 110 24 8 -7 38 -52 67 -102 65 -110 126 -184 163 -200 39 -16 123 -4 141 21 25 33 37 98 25 134 -15 41 3 64 21 29 31 -59 129 -180 165 -204 51 -33 78 -27 128 27 35 38 38 46 33 83 -5 30 -1 48 14 73 15 24 20 50 20 102 0 38 4 71 8 74 5 3 29 -23 55 -58 68 -92 155 -175 198 -187 107 -33 195 115 147 248 -19 53 -1 51 54 -5 28 -29 62 -55 76 -59 23 -5 37 -2 93 21 13 6 18 -1 23 -26 3 -18 13 -58 22 -88 9 -30 23 -80 31 -110 8 -30 20 -75 28 -100 7 -25 21 -72 30 -105 9 -33 23 -74 31 -92 8 -17 14 -41 14 -53 0 -12 16 -38 35 -57 33 -33 39 -35 82 -30 34 4 51 12 69 33 13 16 23 35 24 42 0 25 20 11 36 -26 10 -25 14 -56 11 -97 -6 -75 -26 -177 -38 -189 -5 -6 -9 -17 -9 -26 0 -23 -103 -225 -142 -279 -10 -13 -18 -28 -18 -33 0 -5 54 -7 121 -6 l122 3 48 94 c27 52 49 99 49 104 0 5 6 23 14 40 32 71 53 166 63 282 6 66 -10 149 -39 208 -35 71 -34 71 200 63 113 -4 211 -11 217 -15 5 -5 48 -11 94 -15 46 -4 92 -11 102 -16 10 -6 34 -10 53 -10 29 0 37 -4 41 -23 6 -23 -23 -145 -50 -212 -9 -22 -20 -49 -24 -60 -41 -103 -169 -327 -205 -360 -6 -5 -24 -27 -39 -47 l-28 -38 133 0 133 0 43 66 c84 125 196 372 223 489 17 77 32 115 45 115 7 0 15 -4 18 -9 3 -5 22 -12 42 -16 20 -3 44 -10 53 -15 9 -5 54 -26 101 -46 81 -36 180 -85 302 -152 98 -54 228 -141 371 -251 77 -58 162 -123 190 -143 l52 -37 178 -1 177 0 0 29 c0 34 -58 91 -93 91 -53 0 -128 37 -206 99 -25 20 -55 43 -67 51 -12 8 -66 49 -120 91 -55 41 -133 97 -174 123 -41 27 -97 63 -125 81 -98 65 -275 156 -426 219 -115 49 -146 61 -231 91 -39 14 -48 21 -53 48 -21 97 -118 162 -188 126 -33 -17 -55 -44 -59 -70 -3 -22 -7 -24 -53 -21 -27 2 -59 7 -70 12 -45 22 -580 49 -598 31 -6 -6 -30 -11 -53 -11 -56 0 -104 -38 -104 -82 0 -19 -8 -37 -22 -49 -33 -27 -46 -23 -53 13 -4 18 -14 56 -22 83 -30 99 -51 173 -82 291 -17 63 -15 88 7 79 40 -18 72 -17 105 4 38 23 57 58 57 101 0 35 2 35 35 14 38 -25 81 -21 123 13 56 46 56 95 0 210 -15 30 -3 41 20 20 27 -25 131 -23 158 2 35 32 49 78 36 115 -7 18 -12 39 -12 47 0 8 -9 31 -20 52 -20 37 -26 67 -14 67 4 0 36 -26 71 -57 118 -106 155 -117 218 -62 31 28 35 37 35 79 0 27 -4 52 -10 55 -12 7 -14 55 -2 55 4 0 23 -5 42 -10 44 -12 94 0 127 32 20 18 23 31 23 88 0 71 -9 95 -86 221 -19 31 -34 61 -34 66 0 5 14 22 30 38 17 16 30 35 30 42 0 24 34 14 74 -22 33 -29 47 -35 87 -35 70 0 94 23 94 94 l0 56 -104 104 c-99 100 -104 106 -93 131 l12 25 62 -31 c35 -17 76 -37 91 -45 48 -24 101 -18 136 15 26 24 31 37 31 74 0 45 -2 48 -100 143 -98 96 -110 116 -90 152 5 9 21 56 36 105 33 107 43 123 70 109 69 -38 162 -72 194 -72 52 0 100 46 100 97 0 49 -28 83 -102 121 -136 71 -182 120 -143 152 16 14 44 8 138 -26 21 -8 66 -15 99 -16 57 -2 63 0 89 30 22 25 29 42 29 75 0 55 -18 79 -164 221 l-116 111 0 62 c0 79 13 89 91 67 159 -45 197 -43 233 14 12 21 25 44 28 53 4 9 19 20 35 23 47 12 117 63 179 130 76 82 74 80 111 156 73 153 86 233 86 520 -1 229 -18 527 -32 544 -5 6 -12 29 -16 51 -10 59 -71 174 -116 221 -48 49 -120 90 -174 97 -22 3 -54 11 -70 17 -33 13 -217 11 -254 -2 -13 -5 -40 -11 -61 -13 -21 -3 -54 -12 -73 -20 -57 -24 -64 -20 -82 43 -85 286 -170 513 -294 784 -11 26 -21 51 -21 55 0 18 -225 454 -275 533 -30 46 -52 86 -50 88 4 5 88 -62 148 -118 35 -31 198 -241 208 -266 4 -11 101 -145 152 -211 17 -23 27 -48 27 -71 0 -33 20 -104 47 -169 7 -17 13 -35 13 -41 0 -14 60 -124 80 -147 46 -51 152 -223 157 -252 6 -37 45 -81 80 -89 13 -4 37 -1 54 6 100 42 93 159 -18 312 -22 29 -50 71 -63 93 -13 22 -30 46 -37 53 -35 36 -92 189 -102 272 -7 64 -32 115 -98 199 -26 33 -75 99 -108 146 -128 184 -186 254 -275 335 -51 47 -114 105 -139 130 -64 63 -190 160 -208 160 -4 0 -23 11 -42 24 -20 13 -110 72 -201 131 -91 59 -177 116 -192 126 -15 11 -31 19 -36 19 -5 0 -18 10 -30 23 -20 22 -21 24 -6 67 13 37 16 104 17 365 2 305 1 321 -18 347 -39 53 -118 58 -155 11 -24 -31 -42 -21 -39 21 5 51 -11 267 -23 323 -19 91 -89 133 -158 95z m-2225 -633 c-7 -20 -8 -21 -17 -5 -5 9 -7 24 -4 33 10 26 29 -1 21 -28z m2240 -101 c7 -24 33 -167 42 -230 6 -44 1 -45 -53 -19 -66 32 -69 40 -51 124 9 39 19 89 22 110 7 41 29 50 40 15z m-2430 -328 c0 -18 -13 -30 -59 -54 -56 -29 -59 -30 -72 -11 -27 37 -13 52 81 83 40 14 50 10 50 -18z m1434 -112 c11 -24 29 -64 41 -89 24 -54 44 -75 88 -90 27 -9 39 -8 74 10 l42 21 26 -25 c21 -21 36 -25 82 -25 80 0 109 31 133 137 23 106 22 103 42 103 29 0 40 -13 46 -50 25 -146 40 -255 44 -312 4 -62 7 -70 40 -99 32 -27 41 -31 77 -26 30 4 48 14 68 38 23 28 27 43 34 130 3 55 11 99 16 99 16 0 113 -92 282 -269 87 -91 262 -271 389 -400 127 -128 249 -256 271 -283 104 -127 172 -217 201 -266 6 -10 20 -31 32 -49 31 -43 75 -143 102 -233 13 -41 29 -88 37 -103 8 -16 14 -34 14 -40 0 -12 43 -121 76 -194 8 -17 14 -40 14 -51 0 -12 5 -24 10 -27 6 -3 10 -19 10 -34 0 -34 35 -81 60 -81 28 0 37 -20 70 -165 5 -22 17 -71 26 -110 9 -38 20 -104 26 -145 5 -41 14 -88 20 -105 14 -39 24 -903 11 -916 -6 -6 -24 -4 -49 5 -22 7 -96 17 -165 21 l-125 7 -27 -32 c-42 -49 -38 -111 11 -182 38 -57 161 -201 266 -315 83 -88 71 -96 -81 -48 -173 54 -204 63 -248 71 -22 3 -45 10 -50 15 -6 4 -38 11 -72 15 l-63 7 -40 -41 c-75 -74 -51 -120 134 -263 36 -28 66 -56 66 -61 0 -6 -19 -8 -47 -4 -91 12 -214 18 -238 12 -14 -4 -43 -23 -65 -42 -35 -32 -40 -42 -40 -79 0 -35 8 -54 44 -102 24 -33 56 -70 72 -82 46 -35 245 -234 240 -239 -5 -4 -81 21 -122 40 -27 13 -84 -4 -109 -32 -21 -23 -43 -25 -70 -7 -35 23 -109 47 -148 47 -41 0 -43 3 -23 51 12 28 12 42 2 79 -16 58 -39 107 -68 147 -13 17 -30 41 -38 53 -99 145 -135 173 -207 163 l-40 -5 -50 83 c-27 46 -55 98 -62 116 -15 37 -46 68 -84 82 -44 17 -103 -17 -118 -69 -12 -38 -14 -40 -52 -40 -52 0 -92 -25 -112 -71 -13 -28 -14 -41 -6 -57 13 -24 70 -198 95 -287 9 -33 21 -72 25 -87 12 -38 -4 -36 -43 5 -113 120 -164 185 -189 242 -55 124 -67 135 -138 135 -50 0 -60 -3 -78 -27 -40 -50 -37 -95 14 -193 27 -52 56 -132 50 -138 -2 -3 -28 20 -58 50 -36 37 -70 89 -107 162 -58 115 -88 146 -140 146 -45 0 -100 -56 -100 -101 0 -39 24 -106 60 -169 29 -49 80 -155 80 -165 0 -20 -159 160 -225 255 -47 67 -50 70 -100 70 -61 0 -81 -9 -100 -44 -17 -32 -17 -56 0 -116 l8 -25 -30 28 c-44 41 -98 38 -142 -7 -31 -32 -33 -38 -29 -88 2 -30 16 -76 31 -106 30 -61 31 -62 17 -62 -6 0 -15 10 -20 23 -6 12 -15 31 -22 42 -13 23 -15 27 -63 118 -19 38 -45 77 -58 88 -34 28 -86 24 -127 -10 l-35 -29 2 -82 c1 -45 6 -87 11 -94 8 -9 17 -61 25 -145 4 -47 -20 -30 -84 56 -74 101 -129 194 -129 221 0 10 -15 33 -34 51 -31 30 -38 33 -86 30 l-53 -4 -17 55 c-9 30 -25 80 -34 110 -24 79 -48 100 -112 100 -48 0 -55 -3 -83 -37 l-31 -38 0 -313 c0 -239 -3 -313 -12 -310 -7 3 -15 15 -19 29 -6 23 -46 109 -147 318 -81 170 -164 217 -242 140 -33 -33 -45 -85 -41 -177 3 -55 0 -67 -25 -99 l-27 -36 12 -146 c32 -391 42 -421 141 -421 42 0 52 4 74 31 26 30 26 32 26 202 l0 172 20 -25 c11 -14 20 -29 20 -33 0 -4 14 -38 31 -75 17 -37 39 -85 49 -107 125 -273 161 -321 237 -312 48 5 93 38 93 68 0 35 24 40 212 43 203 4 355 14 378 24 8 3 74 12 145 18 169 16 407 55 450 74 11 5 40 13 65 18 25 6 59 15 75 21 17 6 95 31 175 56 172 54 184 59 368 147 113 53 148 66 162 58 29 -16 99 -12 131 7 50 29 63 73 55 182 -4 52 -11 100 -16 105 -4 6 -12 39 -16 74 -6 55 -4 65 12 77 11 8 21 15 24 15 3 0 25 -28 50 -62 56 -80 193 -214 244 -240 25 -13 52 -19 77 -16 43 4 51 -12 24 -48 -37 -49 -2 -118 126 -249 54 -56 99 -109 99 -117 0 -9 -7 -21 -15 -28 -17 -14 -21 -115 -5 -125 6 -3 10 -13 10 -20 0 -11 -14 -14 -62 -13 -59 2 -63 0 -92 -34 l-31 -36 -33 29 c-36 32 -60 36 -100 15 -86 -45 -85 -84 6 -266 40 -78 70 -145 68 -148 -3 -2 -56 46 -117 107 -62 61 -123 114 -136 117 -13 4 -54 3 -90 -1 -60 -6 -72 -11 -105 -45 -39 -38 -48 -72 -29 -108 5 -9 26 -57 46 -106 29 -71 34 -90 23 -97 -16 -11 -20 -11 -34 -1 -13 8 -96 200 -108 246 -11 45 -61 86 -105 86 -39 -1 -65 -18 -95 -64 -18 -28 -18 -31 -1 -85 10 -31 22 -67 28 -81 10 -27 32 -109 47 -175 5 -22 13 -52 19 -67 6 -17 7 -29 1 -33 -10 -6 -15 9 -10 30 1 5 -6 15 -15 21 -15 12 -37 78 -54 169 -15 82 -54 124 -113 125 -51 0 -65 -7 -89 -46 -23 -38 -22 -80 6 -174 10 -38 20 -73 39 -155 2 -5 6 -32 11 -60 4 -27 12 -58 16 -67 21 -39 -111 -67 -143 -30 -9 9 -19 37 -23 62 -4 25 -13 65 -20 90 -7 25 -21 74 -30 110 -39 148 -61 173 -146 168 -50 -3 -55 -5 -82 -46 -27 -39 -31 -42 -65 -36 -48 7 -104 -28 -112 -71 -5 -28 2 -150 14 -240 6 -39 6 -39 -6 -10 -6 16 -17 36 -25 43 -7 7 -13 21 -13 31 0 10 -6 37 -14 62 -8 24 -22 73 -32 107 -22 78 -49 102 -111 102 -34 0 -50 -6 -70 -26 -24 -24 -25 -30 -21 -102 4 -67 21 -136 49 -207 14 -35 41 -138 46 -177 11 -79 -16 -38 -110 172 -43 97 -75 206 -97 330 -7 36 -16 77 -22 91 -19 53 -106 66 -157 23 l-31 -26 0 -396 c0 -219 -4 -403 -9 -411 -7 -11 -12 -10 -27 7 -29 34 -109 245 -164 432 -12 41 -26 86 -30 100 -5 14 -11 37 -14 52 -3 14 -20 37 -37 50 -17 13 -52 43 -78 67 -36 34 -56 45 -89 49 l-43 5 -102 -107 c-55 -59 -120 -119 -143 -132 -23 -14 -44 -33 -47 -44 -3 -11 -10 -20 -16 -20 -18 0 -32 47 -45 150 -15 110 -25 134 -66 155 -41 21 -68 19 -107 -10 -24 -19 -35 -37 -39 -64 -5 -34 -14 -43 -73 -82 -36 -24 -70 -47 -76 -51 -55 -45 -105 -77 -109 -70 -2 4 8 25 23 47 50 75 93 169 93 206 1 60 -54 119 -110 119 -25 0 -89 -27 -123 -51 -33 -23 -39 -17 -39 37 0 70 -69 125 -139 111 -36 -8 -45 1 -28 27 23 35 46 116 40 134 -13 36 -47 75 -78 87 -43 19 -103 4 -173 -43 -30 -20 -64 -42 -75 -49 -11 -6 -22 -15 -26 -21 -8 -12 -91 -64 -91 -57 0 10 61 86 125 156 262 286 313 390 230 474 -45 44 -77 53 -121 31 -56 -26 -65 -22 -58 28 9 60 0 88 -37 125 -28 28 -36 31 -95 31 -82 0 -136 -26 -292 -138 -71 -52 -102 -60 -102 -27 0 8 23 47 52 86 74 102 88 134 88 200 0 52 -3 60 -31 83 -17 14 -35 26 -40 26 -19 0 -7 25 33 71 54 60 57 63 110 140 62 89 78 125 78 175 0 35 -5 47 -32 69 -29 24 -38 27 -93 23 -63 -5 -97 -24 -230 -129 -57 -45 -74 -50 -51 -14 24 37 20 86 -9 118 -23 23 -33 27 -84 27 -40 0 -63 -5 -71 -15 -7 -8 -16 -15 -19 -15 -9 0 -41 90 -41 116 0 11 -4 24 -9 30 -5 5 -14 29 -19 54 -6 25 -18 72 -27 105 -53 198 -79 338 -97 530 -10 106 -18 499 -11 527 2 9 19 26 38 37 19 11 43 38 54 60 12 22 31 46 43 52 35 19 57 52 58 85 0 32 20 106 47 179 17 44 30 78 64 170 12 33 28 74 35 90 7 17 20 54 29 83 10 29 21 55 26 58 5 3 9 14 9 26 0 11 6 32 14 46 7 15 28 65 45 112 17 47 38 98 46 113 8 16 15 33 15 38 0 9 10 35 50 124 17 38 107 260 124 305 20 53 65 120 86 130 63 29 79 43 121 105 27 39 73 95 104 125 l56 55 47 -51 c26 -28 68 -75 93 -105 59 -68 123 -98 170 -78 92 38 103 111 38 266 -23 54 -43 108 -46 121 -3 12 -9 25 -14 28 -16 10 -9 43 11 54 16 9 28 2 76 -42 70 -66 90 -77 136 -78 51 0 105 53 110 107 2 30 10 42 34 58 50 31 80 115 52 143 -6 6 -9 14 -7 17 3 3 20 -16 38 -41 35 -48 63 -64 112 -64 34 0 89 47 89 75 0 47 54 -29 138 -194 74 -148 144 -185 227 -119 l28 22 -7 200 c-3 114 -11 205 -17 212 -6 7 -9 30 -7 51 l3 38 23 -43 c12 -23 22 -49 22 -58 0 -8 20 -35 45 -59 56 -57 88 -59 138 -12 41 38 56 93 38 142 -6 17 -11 52 -11 78 0 25 -4 57 -9 70 -14 35 -26 197 -15 197 8 -1 102 -138 113 -165 2 -5 27 -39 54 -75 67 -88 104 -113 164 -112 42 0 52 5 80 37 20 23 33 51 37 78 10 80 18 117 26 122 5 3 35 -48 66 -112 72 -146 123 -203 183 -203 33 0 46 7 75 36 l35 36 5 136 c5 136 13 235 21 260 3 6 16 12 30 12 20 0 29 -9 44 -42z m-1391 -233 c-2 -14 -7 -26 -13 -26 -5 0 -11 12 -13 26 -2 18 1 25 13 25 12 0 15 -7 13 -25z m-1918 -1461 c0 -8 -14 -50 -31 -92 -52 -131 -58 -146 -61 -166 -2 -11 -9 -21 -15 -24 -16 -5 -17 37 -2 75 6 15 15 42 20 58 18 70 66 165 82 165 4 0 7 -7 7 -16z m-120 -318 c0 -8 -4 -18 -10 -21 -5 -3 -10 3 -10 14 0 12 5 21 10 21 6 0 10 -6 10 -14z m6490 -394 c91 -28 116 -55 149 -158 32 -99 40 -189 48 -519 5 -253 -11 -362 -73 -473 -76 -135 -134 -174 -314 -209 -54 -11 -103 -2 -130 22 -19 17 -20 34 -20 426 0 228 -4 428 -10 451 -5 24 -14 95 -20 158 -6 63 -13 136 -16 162 -5 43 -3 52 26 88 22 28 41 41 68 46 20 4 44 10 52 15 27 15 182 10 240 -9z m-6890 -775 c25 0 54 3 66 7 20 7 21 4 31 -206 11 -217 26 -333 63 -493 12 -49 25 -106 29 -125 4 -19 13 -51 19 -70 25 -79 42 -143 42 -156 0 -8 4 -22 9 -32 13 -26 51 -155 51 -174 0 -9 5 -20 10 -23 17 -10 11 -35 -7 -35 -16 1 -125 37 -248 83 -75 28 -220 108 -251 139 -20 18 -40 55 -53 93 -20 59 -21 79 -18 277 3 117 8 233 11 258 16 113 29 187 36 205 5 11 12 46 15 77 4 32 10 60 15 63 4 3 11 20 14 39 4 18 18 46 32 61 21 23 30 26 57 20 18 -4 52 -7 77 -8z m5925 -1507 c3 -5 18 -10 33 -11 15 0 65 -13 112 -28 l85 -27 -1 -45 c0 -43 -27 -119 -42 -119 -4 0 -63 54 -132 120 -121 115 -124 119 -93 120 17 0 35 -4 38 -10z m-2285 -42 c6 -13 14 -30 19 -38 41 -72 52 -110 31 -110 -13 0 -50 74 -50 99 0 11 -4 23 -10 26 -10 6 -14 45 -5 45 3 0 10 -10 15 -22z m-891 -505 c27 -84 26 -85 -6 -81 -27 3 -28 6 -31 62 -3 55 1 86 12 86 2 0 14 -30 25 -67z m325 -35 c26 -23 14 -48 -24 -48 -29 0 -30 1 -30 46 0 50 0 50 54 2z m328 0 c-16 -16 -37 4 -28 28 6 16 8 16 23 1 13 -13 15 -19 5 -29z m-672 -1238 c0 -120 0 -121 -26 -130 -14 -6 -29 -10 -33 -10 -10 0 -51 119 -51 148 0 19 84 111 103 112 4 0 7 -54 7 -120z m1728 -209 c8 -5 12 -21 10 -41 l-3 -32 -23 31 c-29 39 -19 65 16 42z"/> <path d="M5154 5338 c-59 -60 -81 -100 -102 -178 -21 -79 -26 -139 -14 -164 6 -11 15 -37 21 -57 14 -45 72 -101 136 -130 39 -18 67 -24 125 -23 89 0 136 20 200 87 52 56 76 94 90 148 7 24 27 58 46 77 44 44 54 63 54 102 0 62 -85 117 -137 89 -23 -12 -26 -11 -56 25 -44 52 -93 69 -212 73 l-100 4 -51 -53z"/> <path d="M4059 5314 l-24 -26 -6 -336 c-6 -312 -15 -437 -38 -487 -10 -22 -29 -95 -59 -225 -11 -47 -41 -143 -66 -214 -34 -95 -46 -143 -46 -185 0 -53 3 -60 38 -94 l38 -37 266 0 266 0 31 26 c27 22 31 32 31 74 0 40 -5 52 -32 79 l-32 31 -181 0 c-100 0 -184 2 -187 5 -5 6 13 68 31 103 17 35 34 89 47 152 7 36 18 90 25 120 6 30 14 60 19 65 4 6 11 33 15 60 4 28 10 55 15 60 4 6 11 33 15 60 9 70 18 661 10 713 -9 62 -33 82 -98 82 -45 0 -58 -4 -78 -26z"/> <path d="M2955 5259 c-27 -11 -65 -27 -83 -35 -18 -8 -37 -14 -43 -14 -14 0 -64 -43 -95 -82 -55 -69 -58 -219 -7 -309 25 -44 40 -58 94 -86 58 -29 72 -32 155 -33 98 0 156 19 222 75 62 52 122 182 122 265 0 52 -35 134 -72 168 -73 67 -202 90 -293 51z"/> <path d="M7900 280 c-36 -10 -94 -22 -130 -26 -120 -13 -160 -41 -160 -113 1 -50 21 -84 58 -95 18 -6 20 -11 12 -27 -10 -18 -6 -19 95 -19 104 0 105 0 105 24 0 27 16 43 50 49 117 22 160 54 160 122 0 32 -6 47 -28 69 -38 35 -82 40 -162 16z"/> <path d="M8324 30 c-49 -20 -35 -30 40 -30 42 0 76 2 76 6 0 7 -66 34 -82 33 -7 0 -23 -4 -34 -9z"/> </g> </svg> 